<svg viewBox="0 0 25 21" fill="none" xmlns="http://www.w3.org/2000/svg"><path d="M24.64 14.27c.78-2.44.14-5.2-.54-7.11a16.6 16.6 0 0 0-.7-1.7.89.89 0 0 0 .57-.83v-3.7c0-.48-.4-.88-.89-.88h-10.9a.44.44 0 0 0-.45.47c.15 2.66-.04 4.47-.6 5.74a.39.39 0 0 0-.04.04v.07c-.21.46-.5.89-.86 1.26l-.04.02v.03c-.52.5-1.12.9-1.77 1.2-1.14.5-2.32.94-3.51 1.3l-.23.08c-4.15 1.38-4.69 3.87-4.68 5.12v3.23c0 .15.08.3.21.37a12.9 12.9 0 0 0 3.27 1.42.44.44 0 0 0 .56-.45v-.1h.65v.44c0 .22.16.41.38.45.38.06.77.1 1.14.14a.44.44 0 0 0 .48-.44v-.56h.66v.63c0 .24.2.44.44.44.37 0 .75 0 1.15-.05.23-.02.4-.21.4-.45v-.57h.66v.39a.44.44 0 0 0 .51.44c.82-.12 1.62-.32 2.4-.57l.07-.03c3.11-1.78 5.08-.32 5.16-.26.08.06.17.1.27.1h.55c.25 0 .45-.2.45-.45v-.75h.63v.74c0 .25.2.45.45.45h1.42c.25 0 .45-.2.45-.45v-.74h.66v.74c0 .25.2.45.44.45h1.1c.24 0 .44-.2.44-.45v-4.78c0-.21-.15-.4-.36-.44Zm-10.53-13.32h8.95v3.67h-8.95v-3.67Zm-5.58 8.85v.02c.37.3.7.63 1 .98a.84.84 0 0 0-.11.45.85.85 0 1 0 .92-.84c-.28-.38-.6-.74-.95-1.05.4-.23.77-.5 1.11-.8.43.41.83.85 1.2 1.3a.85.85 0 1 0 .8-.56h-.11c-.39-.5-.81-.95-1.27-1.38.21-.26.4-.54.56-.84.69.36 1.35.76 1.99 1.2a.86.86 0 1 0 .47-.76 20.8 20.8 0 0 0-2.09-1.23c.49-1.29.7-3 .6-5.33h.58v3.68c0 .49.4.89.89.89h8.31c.12.23.31.64.53 1.17h-.18a4.88 4.88 0 0 0-2.88 8.8c-3.6.95-9 2.07-13.54 1.78.84-3.35-.16-5.42-.82-6.32a29.5 29.5 0 0 0 3-1.16Zm-3.88 1.41c.48.57 1.73 2.46.81 5.95a11.2 11.2 0 0 1-4.55-1.38l-.03-.3v-.04c-.04-.94.32-2.99 3.77-4.23Zm19.25 7.84v-.74c0-.25-.2-.44-.44-.44h-1.54c-.25 0-.45.2-.45.44v.74h-.54v-.74c0-.25-.2-.44-.44-.44h-1.54c-.24 0-.44.2-.44.44v.72c-.6-.37-2.81-1.47-5.94.28-.56.18-1.12.33-1.7.44v-.3c0-.25-.2-.45-.44-.45h-1.53c-.25 0-.45.2-.45.45v.6h-.22v-.62c0-.24-.2-.44-.45-.44h-1.54c-.24 0-.44.2-.44.44v.53l-.23-.03v-.5c0-.24-.2-.44-.44-.44h-1.54a.44.44 0 0 0-.45.39c-.78-.26-1.54-.6-2.26-1.02v-1.59c1.93 1.03 4.44 1.42 7.1 1.42 7.08 0 15.17-2.71 16.13-3.04v3.9h-.2Zm-.21-4.68c-.38.12-1.31.44-2.6.78a4 4 0 0 1 2.2-7.56l.01.01c.66 1.89 1.24 4.57.39 6.77Z" fill="#2D383F"/></svg>